<?xml version="1.0" standalone="no"?>
<!DOCTYPE svg PUBLIC "-//W3C//DTD SVG 20010904//EN"
 "http://www.w3.org/TR/2001/REC-SVG-20010904/DTD/svg10.dtd">
<svg version="1.0" xmlns="http://www.w3.org/2000/svg"
 width="1024.000000pt" height="1024.000000pt" viewBox="0 0 1024.000000 1024.000000"
 preserveAspectRatio="xMidYMid meet">

<g transform="translate(0.000000,1024.000000) scale(0.100000,-0.100000)"
fill="#000000" stroke="none">
<path d="M7304 8917 l-29 -25 -6 -169 c-7 -179 -20 -237 -76 -326 -55 -87
-163 -167 -273 -203 -49 -16 -118 -18 -665 -24 l-610 -6 -82 -30 c-107 -40
-182 -86 -261 -159 -82 -76 -134 -146 -188 -255 -50 -99 -94 -266 -94 -357 l0
-63 -1525 0 c-1091 0 -1539 -3 -1577 -11 -162 -35 -300 -170 -337 -330 -7 -29
-11 -537 -11 -1445 0 -1376 0 -1403 20 -1467 39 -127 149 -237 283 -284 50
-17 189 -18 3232 -18 3053 0 3182 1 3238 18 124 39 241 147 288 264 l24 58 0
1420 c0 1362 -1 1422 -19 1475 -38 111 -110 198 -213 256 -118 67 -39 64
-1717 64 l-1519 0 6 73 c25 280 187 511 424 600 57 22 70 22 668 27 l610 6 80
27 c173 58 316 176 392 323 61 118 74 175 80 364 6 191 1 207 -73 217 -33 4
-45 1 -70 -20z m1022 -1819 c68 -36 130 -108 149 -171 13 -44 15 -234 15
-1419 0 -1257 -1 -1371 -17 -1410 -24 -62 -58 -102 -113 -138 -43 -27 -63 -33
-152 -41 -63 -6 -1306 -8 -3178 -7 l-3075 3 -53 24 c-63 28 -133 103 -150 159
-9 29 -12 383 -12 1424 0 1225 2 1390 16 1430 21 63 89 131 155 156 l54 21
3155 -2 3155 -2 51 -27z"/>
<path d="M2040 6810 c-36 -39 -40 -63 -40 -262 0 -185 7 -219 56 -257 27 -21
33 -22 252 -19 l224 3 29 33 29 32 0 206 c0 306 12 294 -298 294 l-224 0 -28
-30z m400 -250 l0 -140 -140 0 -140 0 0 140 0 140 140 0 140 0 0 -140z"/>
<path d="M2718 6824 c-52 -28 -58 -55 -58 -267 0 -185 1 -196 23 -228 37 -55
53 -59 260 -59 285 0 280 -6 275 301 l-3 211 -33 29 -32 29 -203 0 c-159 -1
-208 -4 -229 -16z m352 -264 l0 -140 -130 0 -130 0 0 140 0 140 130 0 130 0 0
-140z"/>
<path d="M3332 6812 c-39 -36 -45 -84 -39 -299 7 -248 4 -245 291 -241 l206 3
32 33 33 32 3 193 c4 210 -3 254 -45 286 -24 20 -39 21 -238 21 l-213 0 -30
-28z m373 -252 l0 -135 -130 0 -130 0 -2 130 c-1 71 1 133 4 138 2 4 62 6 131
5 l127 -3 0 -135z"/>
<path d="M3978 6817 c-15 -12 -32 -35 -38 -50 -5 -16 -10 -111 -10 -213 0
-200 5 -223 56 -263 25 -20 39 -21 216 -21 292 0 288 -4 288 280 0 298 7 290
-280 290 -198 0 -206 -1 -232 -23z m360 -259 l3 -138 -131 0 -130 0 0 133 c0
74 3 137 7 141 4 3 61 5 127 4 l121 -3 3 -137z"/>
<path d="M4622 6826 c-13 -7 -32 -26 -43 -42 -17 -26 -19 -48 -19 -211 0 -203
9 -247 60 -283 26 -18 45 -20 220 -20 292 0 290 -2 290 283 0 102 -4 197 -10
212 -5 14 -22 37 -36 50 -27 25 -28 25 -233 25 -148 -1 -212 -4 -229 -14z
m356 -268 l3 -138 -136 0 -135 0 0 140 0 141 133 -3 132 -3 3 -137z"/>
<path d="M5258 6824 c-52 -28 -58 -55 -58 -259 0 -206 7 -237 58 -274 28 -20
42 -21 221 -21 301 0 293 -8 289 296 l-3 216 -33 29 -32 29 -208 0 c-164 -1
-213 -4 -234 -16z m360 -266 l3 -138 -136 0 -135 0 0 133 c0 74 3 137 7 141 4
3 63 5 132 4 l126 -3 3 -137z"/>
<path d="M5884 6806 l-34 -34 0 -206 c0 -306 -7 -299 291 -294 l201 3 34 37
34 38 0 200 c0 300 10 290 -283 290 l-209 0 -34 -34z m374 -248 l3 -138 -136
0 -135 0 0 133 c0 74 3 137 7 141 4 3 63 5 132 4 l126 -3 3 -137z"/>
<path d="M6531 6824 c-43 -31 -51 -70 -51 -256 0 -199 8 -238 54 -273 33 -25
35 -25 227 -25 175 0 197 2 226 20 58 35 63 58 63 270 0 289 9 280 -285 280
-178 0 -214 -2 -234 -16z m367 -266 l3 -138 -136 0 -135 0 0 140 0 141 133 -3
132 -3 3 -137z"/>
<path d="M7158 6811 l-33 -29 -3 -194 c-4 -215 3 -253 49 -292 l31 -26 464 0
c510 0 518 1 548 59 22 42 23 408 2 450 -33 63 -18 61 -545 61 l-481 0 -32
-29z m902 -251 l0 -140 -395 0 -395 0 0 133 c0 74 3 137 7 140 3 4 181 7 395
7 l388 0 0 -140z"/>
<path d="M2064 6124 c-58 -29 -66 -64 -62 -287 l3 -197 33 -32 32 -33 358 -3
358 -3 34 23 c51 34 59 69 59 260 1 186 -9 232 -57 265 -25 16 -58 18 -377 21
-301 2 -354 0 -381 -14z m656 -274 l0 -130 -280 0 -280 0 0 130 0 130 280 0
280 0 0 -130z"/>
<path d="M3023 6125 c-18 -8 -42 -29 -53 -47 -18 -30 -20 -50 -20 -216 0 -290
2 -292 288 -292 180 0 196 1 223 21 54 38 59 60 59 266 0 280 -3 283 -287 283
-130 -1 -187 -5 -210 -15z m342 -275 l0 -125 -132 -3 -133 -3 0 131 0 131 133
-3 132 -3 0 -125z"/>
<path d="M3653 6121 c-57 -36 -63 -60 -63 -261 0 -287 3 -290 286 -290 182 0
193 1 225 23 50 34 58 68 58 265 1 184 -6 219 -49 257 -20 18 -38 20 -224 23
-186 3 -203 1 -233 -17z m350 -208 c3 -38 6 -96 7 -130 l1 -63 -135 0 -136 0
0 130 0 130 129 0 128 0 6 -67z"/>
<path d="M4305 6130 c-11 -4 -31 -20 -45 -35 -25 -27 -25 -27 -25 -233 0 -202
1 -208 24 -240 13 -18 34 -38 48 -43 13 -5 107 -9 209 -9 279 0 278 -2 282
275 4 291 1 295 -288 294 -102 0 -194 -4 -205 -9z m337 -270 c2 -66 2 -125 0
-130 -2 -6 -57 -10 -133 -10 l-129 0 0 130 0 130 129 0 130 0 3 -120z"/>
<path d="M4953 6133 c-13 -2 -36 -21 -53 -41 l-30 -37 0 -196 c0 -188 1 -198
23 -230 37 -55 53 -59 260 -59 281 0 280 -1 285 280 4 285 -1 291 -283 289
-99 -1 -190 -4 -202 -6z m327 -283 l0 -130 -130 0 -130 0 0 130 0 130 130 0
130 0 0 -130z"/>
<path d="M5595 6133 c-11 -3 -28 -12 -39 -22 -41 -37 -46 -63 -46 -251 0 -286
4 -290 280 -290 166 0 188 2 217 20 60 36 65 58 61 280 l-3 200 -33 32 -32 33
-193 2 c-105 1 -201 -1 -212 -4z m325 -283 l0 -130 -130 0 -130 0 0 130 0 130
130 0 130 0 0 -130z"/>
<path d="M6210 6123 c-61 -31 -70 -64 -70 -261 0 -192 6 -220 59 -265 l33 -27
192 0 c184 0 195 1 227 23 57 38 60 51 57 274 l-3 203 -33 32 -32 33 -198 3
c-173 2 -201 1 -232 -15z m350 -273 l0 -130 -130 0 -130 0 0 130 0 130 130 0
130 0 0 -130z"/>
<path d="M6850 6122 c-64 -31 -71 -61 -68 -277 4 -277 2 -275 285 -275 280 0
283 3 283 287 0 278 -5 283 -285 283 -151 0 -186 -3 -215 -18z m340 -272 l0
-130 -130 0 -130 0 0 130 0 130 130 0 130 0 0 -130z"/>
<path d="M7493 6125 c-18 -7 -42 -29 -53 -47 -18 -30 -20 -50 -20 -216 0 -199
8 -237 54 -267 14 -9 43 -19 66 -22 l40 -6 0 -68 0 -68 -200 -3 -200 -3 -32
-33 -33 -32 -3 -183 c-4 -207 3 -245 51 -279 l32 -23 470 0 c449 0 471 1 502
20 64 38 63 28 63 609 0 573 0 576 -56 613 -25 16 -57 18 -339 20 -251 2 -316
0 -342 -12z m567 -620 l0 -475 -400 0 -400 0 0 125 0 125 190 0 c284 0 290 5
290 230 0 139 0 140 -28 171 -23 26 -38 33 -80 37 l-52 5 0 128 0 129 240 0
240 0 0 -475z"/>
<path d="M2075 5421 c-11 -5 -31 -21 -45 -36 -25 -26 -25 -29 -28 -220 -5
-292 -7 -290 293 -290 299 0 298 -1 293 296 l-3 189 -33 32 -32 33 -213 2
c-116 1 -221 -1 -232 -6z m363 -263 l-3 -123 -137 -3 -138 -3 0 126 0 125 140
0 141 0 -3 -122z"/>
<path d="M2724 5414 c-59 -30 -64 -52 -64 -259 0 -280 0 -280 280 -280 206 0
221 4 261 68 18 29 19 47 17 224 l-3 193 -33 32 -32 33 -198 2 c-163 2 -202 0
-228 -13z m346 -259 l0 -125 -130 0 -130 0 0 125 0 125 130 0 130 0 0 -125z"/>
<path d="M3363 5415 c-18 -8 -42 -29 -53 -47 -19 -31 -21 -46 -18 -223 4 -273
1 -270 288 -270 203 0 219 4 257 62 16 24 18 52 18 218 0 276 1 275 -282 275
-130 -1 -187 -5 -210 -15z m342 -260 l0 -120 -132 -3 -133 -3 0 126 0 126 133
-3 132 -3 0 -120z"/>
<path d="M3992 5413 c-56 -27 -62 -51 -62 -253 0 -284 1 -285 280 -285 161 0
190 2 213 18 57 37 62 56 65 247 5 284 -1 290 -278 290 -150 0 -191 -3 -218
-17z m343 -258 l0 -120 -127 -3 -128 -3 0 126 0 126 128 -3 127 -3 0 -120z"/>
<path d="M4624 5414 c-58 -28 -64 -52 -64 -254 0 -284 1 -285 286 -285 l191 0
36 28 c49 37 57 72 57 262 0 258 -8 265 -290 265 -144 0 -192 -4 -216 -16z
m346 -136 c1 -2 3 -58 7 -125 l5 -123 -136 0 -136 0 0 125 0 125 130 0 c72 0
130 -1 130 -2z"/>
<path d="M5263 5416 c-58 -26 -65 -54 -61 -271 l3 -194 29 -30 c41 -43 80 -51
236 -50 181 0 224 8 263 48 l32 31 0 205 0 205 -33 32 -32 33 -203 2 c-157 2
-209 0 -234 -11z m357 -261 l0 -125 -135 0 -135 0 0 125 0 125 135 0 135 0 0
-125z"/>
<path d="M5923 5423 c-12 -2 -36 -20 -53 -40 l-31 -35 3 -200 3 -200 36 -33
c46 -41 92 -48 285 -43 227 6 234 14 234 288 0 271 1 271 -277 269 -98 -1
-188 -4 -200 -6z m327 -268 l0 -125 -130 0 -130 0 0 125 0 125 130 0 130 0 0
-125z"/>
<path d="M6532 5410 c-54 -33 -62 -68 -62 -252 0 -138 3 -169 19 -205 33 -71
56 -78 271 -78 277 0 280 3 280 274 0 183 -7 218 -50 256 -20 18 -38 20 -224
23 -188 3 -203 1 -234 -18z m358 -255 l0 -126 -132 3 -133 3 -1 110 c0 61 2
116 4 123 3 9 39 12 133 12 l129 0 0 -125z"/>
<path d="M2049 4735 c-51 -28 -59 -64 -59 -274 0 -216 7 -247 62 -281 31 -19
50 -20 277 -20 355 0 346 -8 346 307 0 189 -1 203 -21 230 -38 51 -50 53 -324
52 -201 0 -261 -3 -281 -14z m469 -277 l-3 -143 -177 -3 -178 -2 0 145 0 145
180 0 181 0 -3 -142z"/>
<path d="M2812 4730 c-18 -11 -37 -32 -42 -46 -6 -14 -10 -120 -10 -236 l0
-210 39 -39 39 -39 239 0 240 0 39 34 39 34 3 215 c5 320 18 307 -320 307
-215 0 -235 -2 -266 -20z m428 -275 l0 -145 -159 0 -159 0 -6 28 c-7 31 -6
243 1 255 2 4 76 7 164 7 l159 0 0 -145z"/>
<path d="M3538 4734 c-53 -28 -58 -54 -58 -276 0 -186 2 -206 20 -236 40 -65
-26 -62 1228 -62 l1139 0 34 23 c56 37 59 52 59 275 0 217 -5 243 -52 276 -20
14 -147 16 -1183 16 -1007 -1 -1164 -3 -1187 -16z m2262 -279 l0 -145 -1065 0
c-585 0 -1071 3 -1080 6 -12 5 -15 29 -15 145 l0 139 1080 0 1080 0 0 -145z"/>
<path d="M6099 4733 c-55 -34 -59 -53 -59 -273 0 -223 5 -245 63 -280 29 -18
51 -20 247 -20 316 0 313 -3 308 314 -4 288 9 276 -310 276 -188 0 -227 -3
-249 -17z m401 -279 l0 -145 -126 2 c-193 4 -174 -13 -174 150 l0 139 150 0
150 0 0 -146z"/>
<path d="M6784 4716 l-34 -34 0 -213 c0 -235 3 -248 59 -286 32 -22 43 -23
228 -23 307 0 305 -2 301 308 l-3 214 -37 34 -38 34 -221 0 -221 0 -34 -34z
m400 -147 c9 -45 7 -232 -2 -247 -7 -9 -41 -12 -138 -10 l-129 3 -3 143 -3
142 134 0 135 0 6 -31z"/>
<path d="M7472 4734 c-47 -33 -52 -59 -52 -271 0 -314 -15 -303 401 -303 321
0 350 4 383 54 23 36 24 431 1 476 -30 58 -43 60 -392 60 -273 0 -322 -2 -341
-16z m588 -279 l0 -145 -237 2 -238 3 -3 143 -3 142 241 0 240 0 0 -145z"/>
<path d="M8282 3255 c-121 -38 -190 -169 -151 -286 28 -82 89 -127 246 -180
102 -34 133 -59 133 -105 0 -45 -38 -74 -97 -74 -70 0 -123 42 -123 97 0 13
-10 14 -67 8 -107 -11 -112 -15 -102 -69 12 -63 32 -98 79 -139 106 -90 316
-87 418 7 46 41 66 95 67 176 0 137 -52 194 -233 254 -117 39 -144 59 -144
103 0 37 34 63 86 63 49 0 79 -18 96 -60 13 -33 7 -32 135 -11 38 7 40 8 37
41 -6 63 -51 121 -121 157 -55 29 -72 33 -139 32 -43 0 -96 -6 -120 -14z"/>
<path d="M1588 3254 c-5 -4 -8 -187 -8 -406 l0 -398 96 0 97 0 -6 135 -7 135
87 0 c118 0 185 22 243 80 107 106 105 292 -5 388 -66 58 -92 64 -300 69 -104
3 -193 2 -197 -3z m363 -193 c21 -21 29 -39 29 -65 0 -83 -48 -119 -153 -114
l-62 3 -1 103 -2 102 80 0 c75 0 81 -2 109 -29z"/>
<path d="M2250 2855 l0 -405 250 0 250 0 0 85 0 85 -160 0 -160 0 0 85 0 85
125 0 125 0 0 75 0 75 -125 0 -125 0 0 75 c0 71 1 75 23 75 12 1 81 2 154 3
l132 2 3 78 c2 43 1 81 -1 83 -2 2 -114 4 -248 4 l-243 0 0 -405z"/>
<path d="M2870 2856 l0 -406 90 0 90 0 0 148 0 148 38 -4 c37 -4 38 -5 111
-144 41 -77 80 -142 86 -144 6 -3 53 -3 103 -2 l92 3 -51 84 c-99 166 -134
234 -120 239 27 9 93 76 108 111 10 23 16 66 17 116 1 93 -20 144 -79 192 -57
48 -95 55 -297 60 l-188 5 0 -406z m354 203 c41 -48 30 -125 -21 -148 -13 -6
-53 -11 -88 -11 l-65 0 0 95 0 95 74 0 c71 0 75 -2 100 -31z"/>
<path d="M3580 2855 l0 -405 90 0 90 0 0 405 0 405 -90 0 -90 0 0 -405z"/>
<path d="M3908 3254 c-5 -4 -8 -187 -8 -406 l0 -398 97 0 96 0 -6 135 -6 135
87 0 c105 0 145 10 208 53 62 41 94 103 101 191 8 97 -10 150 -71 211 -29 29
-68 56 -91 64 -45 15 -395 28 -407 15z m335 -175 c43 -19 62 -102 36 -151 -15
-28 -69 -48 -133 -48 -57 0 -64 6 -61 50 1 14 2 55 3 93 l2 67 65 0 c35 0 75
-5 88 -11z"/>
<path d="M4580 2855 l0 -405 90 0 90 0 0 170 0 170 145 0 145 0 0 -170 0 -170
90 0 90 0 0 403 0 403 -90 3 -90 2 0 -150 0 -151 -145 0 -144 0 -3 148 -3 147
-87 3 -88 3 0 -406z"/>
<path d="M5387 3253 c-4 -3 -7 -186 -7 -405 l0 -398 250 0 250 0 0 85 0 85
-160 0 -160 0 0 85 0 85 125 0 125 0 0 75 0 75 -125 0 -125 0 0 78 0 77 63 1
c34 1 104 2 155 3 l92 1 0 80 0 80 -238 0 c-131 0 -242 -3 -245 -7z"/>
<path d="M6000 2856 l0 -406 90 0 90 0 0 151 0 150 38 -3 c37 -3 37 -4 116
-150 l79 -148 104 0 105 0 -20 33 c-11 17 -54 88 -96 157 l-75 125 22 15 c54
36 86 78 102 135 42 142 -20 283 -143 324 -22 8 -114 15 -224 18 l-188 5 0
-406z m355 209 c37 -36 35 -97 -4 -136 -27 -27 -35 -29 -100 -29 l-71 0 0 95
0 95 75 0 c67 0 79 -3 100 -25z"/>
<path d="M6886 2988 c-92 -253 -174 -478 -191 -521 -7 -16 0 -18 91 -15 l99 3
34 98 33 97 132 0 132 0 33 -100 32 -100 101 0 c91 0 100 2 95 18 -3 9 -48
134 -100 277 -52 143 -115 316 -140 385 l-45 125 -104 3 -104 3 -98 -273z
m237 -34 c19 -60 37 -119 41 -131 7 -23 6 -23 -72 -23 -43 0 -81 3 -84 6 -4 3
9 51 27 107 18 56 36 115 40 131 3 15 8 26 10 24 3 -2 20 -54 38 -114z"/>
<path d="M7557 3253 c-4 -3 -7 -186 -7 -405 l0 -398 245 0 245 0 0 85 0 85
-155 0 -155 0 0 320 0 320 -83 0 c-46 0 -87 -3 -90 -7z"/>
<path d="M3630 2171 c-111 -36 -170 -114 -170 -223 1 -131 49 -182 238 -248
103 -37 130 -53 142 -86 22 -57 -42 -112 -116 -98 -51 9 -94 49 -94 86 0 29
-1 30 -37 24 -21 -3 -62 -8 -92 -12 l-53 -6 6 -47 c10 -77 51 -131 130 -171
62 -31 75 -34 155 -34 79 0 95 3 155 33 74 36 106 75 126 151 24 88 -10 188
-80 239 -22 16 -86 46 -142 66 -124 45 -158 67 -158 101 0 40 17 62 55 73 65
18 125 -16 148 -83 3 -8 141 9 157 19 13 8 -9 87 -34 125 -13 20 -47 48 -76
64 -45 25 -66 29 -144 32 -50 2 -102 0 -116 -5z"/>
<path d="M4998 2167 c-63 -18 -153 -74 -192 -119 -78 -91 -117 -231 -97 -355
28 -181 156 -309 338 -335 145 -21 273 27 375 141 139 155 125 430 -30 572
-71 66 -157 101 -260 105 -53 2 -105 -1 -134 -9z m178 -162 c47 -8 119 -77
141 -133 20 -54 22 -139 3 -196 -20 -63 -83 -124 -146 -142 -83 -24 -153 -6
-213 55 -52 52 -71 100 -71 182 0 79 16 122 63 174 57 64 118 80 223 60z"/>
<path d="M4090 2085 l0 -85 95 0 95 0 0 -320 0 -320 90 0 90 0 0 320 0 319
103 3 102 3 3 83 3 82 -291 0 -290 0 0 -85z"/>
<path d="M5602 1765 l1 -405 89 0 88 0 0 150 0 150 43 0 42 0 79 -150 80 -150
104 0 c57 0 101 3 99 8 -3 4 -46 77 -97 162 -83 139 -90 156 -75 165 87 50
124 117 125 223 0 82 -14 123 -59 175 -57 64 -111 77 -331 77 l-189 0 1 -405z
m316 245 c40 0 72 -43 72 -95 0 -77 -53 -111 -160 -103 l-45 3 -3 89 c-4 119
-3 120 61 112 28 -3 62 -6 75 -6z"/>
<path d="M6290 1765 l0 -405 253 0 252 0 3 85 3 85 -166 0 -165 0 0 85 0 85
125 0 125 0 0 75 0 75 -125 0 -125 0 0 80 0 80 163 2 162 3 3 78 3 77 -256 0
-255 0 0 -405z"/>
</g>
</svg>
