<?xml version="1.0" standalone="no"?>
<!DOCTYPE svg PUBLIC "-//W3C//DTD SVG 20010904//EN"
 "http://www.w3.org/TR/2001/REC-SVG-20010904/DTD/svg10.dtd">
<svg version="1.0" xmlns="http://www.w3.org/2000/svg"
 width="1024.000000pt" height="1024.000000pt" viewBox="0 0 1024.000000 1024.000000"
 preserveAspectRatio="xMidYMid meet">

<g transform="translate(0.000000,1024.000000) scale(0.100000,-0.100000)"
fill="#000000" stroke="none">
<path d="M7345 8946 c-52 -22 -58 -39 -66 -164 -9 -135 -27 -211 -70 -301 -59
-119 -198 -231 -333 -267 -40 -11 -170 -14 -612 -14 l-562 0 -88 -26 c-249
-71 -465 -263 -564 -500 -40 -98 -60 -189 -60 -286 l0 -78 -1557 -2 -1558 -3
-78 -39 c-93 -47 -166 -121 -211 -216 l-31 -65 0 -1475 0 -1475 29 -60 c43
-87 144 -186 221 -214 33 -13 83 -26 110 -30 28 -4 1477 -7 3220 -6 3002 1
3173 2 3234 19 125 34 211 110 273 242 l33 69 0 1465 0 1465 -32 67 c-38 81
-97 147 -172 192 -117 71 3 66 -1709 66 l-1545 0 6 89 c18 280 196 498 458
561 78 19 118 20 594 20 554 0 638 6 753 53 296 122 454 360 477 722 7 120 -1
153 -45 183 -37 25 -71 27 -115 8z m119 -36 c19 -18 21 -31 20 -119 -5 -349
-142 -582 -426 -723 -116 -57 -142 -60 -743 -63 -586 -3 -606 -4 -734 -55
-119 -46 -239 -155 -301 -271 -52 -99 -71 -165 -77 -281 l-6 -108 1574 -2
1574 -3 73 -34 c96 -45 177 -130 217 -227 l28 -69 1 -1400 c1 -1086 -2 -1415
-11 -1465 -25 -128 -108 -246 -206 -295 -120 -58 90 -55 -3338 -55 -2072 0
-3164 3 -3199 10 -182 35 -315 177 -341 365 -7 55 -9 516 -7 1455 4 1312 5
1377 22 1425 44 115 118 200 228 257 l63 33 1566 3 1566 2 6 113 c13 292 185
551 459 692 164 85 163 85 797 85 461 0 567 3 614 15 124 32 230 107 307 217
68 97 97 192 108 355 8 122 10 127 37 151 23 20 36 23 68 19 22 -3 49 -15 61
-27z"/>
<path d="M1930 7106 c-65 -18 -82 -29 -133 -85 -28 -32 -49 -67 -56 -95 -15
-59 -16 -2764 -1 -2817 14 -51 60 -115 101 -143 88 -60 -154 -56 3294 -54
3077 3 3151 3 3200 22 28 11 69 39 97 67 84 84 79 -28 76 1535 -3 1303 -4
1381 -21 1419 -24 53 -71 101 -132 133 l-50 27 -3165 2 c-2504 1 -3174 -1
-3210 -11z m6412 -34 c26 -13 63 -41 82 -62 70 -77 66 6 66 -1499 0 -903 -4
-1368 -10 -1393 -16 -57 -69 -119 -129 -150 l-53 -28 -3182 0 c-3056 0 -3183
1 -3221 19 -51 23 -107 85 -129 142 -15 40 -16 156 -14 1434 l3 1390 27 46
c32 54 88 96 155 114 39 11 605 13 3203 12 l3155 -2 47 -23z"/>
<path d="M2043 6835 c-18 -8 -42 -29 -53 -47 -18 -30 -20 -50 -20 -232 0 -184
2 -201 21 -233 37 -59 55 -63 279 -63 297 0 290 -7 290 285 0 173 -2 200 -19
233 -34 67 -54 72 -273 72 -143 -1 -201 -4 -225 -15z m445 -21 c47 -32 52 -60
52 -263 0 -206 -5 -233 -51 -257 -33 -17 -391 -20 -433 -4 -14 5 -35 24 -46
42 -19 31 -20 47 -18 234 3 186 5 204 23 224 11 12 29 26 40 31 11 4 108 8
215 8 162 1 199 -2 218 -15z"/>
<path d="M2141 6560 l2 -130 123 0 124 0 0 130 0 130 -126 0 -125 0 2 -130z
m229 0 l0 -110 -99 0 -98 0 -7 46 c-3 26 -6 75 -6 110 l0 64 105 0 105 0 0
-110z"/>
<path d="M2684 6831 c-63 -38 -64 -44 -64 -278 l0 -212 38 -41 39 -40 207 0
c306 0 296 -10 296 278 0 228 -6 256 -65 292 -30 18 -49 20 -226 20 -173 0
-197 -2 -225 -19z m453 -23 c40 -45 43 -61 43 -268 l0 -202 -31 -29 -31 -29
-207 0 c-283 1 -271 -12 -271 275 0 211 6 240 54 264 12 5 109 10 222 10 196
1 201 0 221 -21z"/>
<path d="M2790 6560 l0 -130 126 0 c111 0 125 2 120 16 -3 9 -6 67 -6 130 l0
114 -120 0 -120 0 0 -130z m227 -2 l5 -108 -106 0 -106 0 0 110 0 111 101 -3
101 -3 5 -107z"/>
<path d="M3323 6830 c-58 -35 -63 -58 -63 -270 0 -203 6 -236 50 -275 21 -19
36 -20 240 -20 204 0 219 1 240 20 44 39 50 73 50 267 0 206 -7 234 -69 275
-32 22 -43 23 -225 23 -172 0 -194 -2 -223 -20z m443 -16 c49 -33 54 -57 54
-270 l0 -196 -34 -34 -34 -34 -202 0 -202 0 -34 34 -34 34 0 207 0 207 34 34
34 34 196 0 c166 0 201 -3 222 -16z"/>
<path d="M3430 6560 l0 -130 115 0 115 0 0 130 0 130 -115 0 -115 0 0 -130z
m214 94 c3 -9 6 -58 6 -110 l0 -94 -100 0 -100 0 0 94 c0 52 -3 101 -6 110 -5
14 7 16 94 16 82 0 101 -3 106 -16z"/>
<path d="M3974 6836 c-17 -8 -40 -26 -52 -41 -21 -26 -22 -37 -22 -240 l0
-212 34 -39 34 -39 213 -3 c306 -4 299 -10 299 293 0 203 -7 231 -69 272 -32
22 -43 23 -220 23 -133 -1 -195 -5 -217 -14z m432 -21 c46 -32 54 -70 54 -270
0 -203 -7 -237 -56 -255 -14 -6 -111 -10 -216 -10 -206 0 -234 6 -257 57 -7
15 -11 101 -11 226 1 183 2 204 19 224 11 13 30 27 43 32 12 6 109 10 213 10
152 1 195 -2 211 -14z"/>
<path d="M4070 6560 l0 -130 120 0 120 0 0 130 0 130 -120 0 -120 0 0 -130z
m220 0 l0 -110 -100 0 -100 0 0 110 0 110 100 0 100 0 0 -110z"/>
<path d="M4589 6825 c-20 -13 -39 -31 -43 -40 -3 -9 -6 -111 -6 -226 0 -308
-9 -299 289 -299 110 0 211 4 225 10 14 5 35 24 46 42 18 30 20 51 20 233 0
182 -2 203 -20 233 -41 66 -62 72 -280 72 -191 0 -196 -1 -231 -25z m455 -10
c52 -40 56 -56 56 -273 l0 -204 -29 -29 -29 -29 -201 0 c-134 0 -209 4 -226
12 -52 23 -60 56 -63 258 -4 203 3 236 57 265 38 21 408 20 435 0z"/>
<path d="M4710 6560 l0 -130 120 0 120 0 0 130 0 130 -120 0 -120 0 0 -130z
m230 0 l0 -110 -105 0 -105 0 0 88 c0 48 -3 97 -6 110 -6 22 -6 22 105 22
l111 0 0 -110z"/>
<path d="M5233 6830 c-58 -35 -63 -58 -63 -270 0 -210 4 -226 60 -274 l32 -26
203 0 c112 0 215 4 229 10 14 5 35 24 46 42 18 30 20 51 20 238 0 301 1 300
-302 300 -174 0 -196 -2 -225 -20z m473 -34 l34 -34 0 -212 0 -212 -29 -29
-29 -29 -202 0 c-293 0 -290 -3 -290 280 0 276 -6 270 278 270 l204 0 34 -34z"/>
<path d="M5350 6560 l0 -130 120 0 120 0 0 130 0 130 -120 0 -120 0 0 -130z
m220 0 l0 -110 -100 0 -100 0 0 88 c0 48 -3 97 -6 110 -6 22 -5 22 100 22
l106 0 0 -110z"/>
<path d="M5884 6831 c-62 -38 -64 -45 -64 -272 0 -198 1 -207 23 -240 37 -55
52 -59 270 -59 296 0 287 -10 287 293 0 202 -1 216 -21 241 -41 52 -62 56
-271 56 -172 0 -196 -2 -224 -19z m439 -12 c52 -23 57 -50 57 -274 l0 -207
-29 -29 -29 -29 -207 0 -207 0 -34 34 -34 34 0 205 c0 194 1 206 21 231 12 15
31 32 43 36 32 13 391 12 419 -1z"/>
<path d="M5990 6560 l0 -130 125 0 124 0 -1 130 -2 130 -123 0 -123 0 0 -130z
m230 0 l0 -110 -105 0 -105 0 0 110 0 110 105 0 105 0 0 -110z"/>
<path d="M6532 6833 c-57 -28 -62 -48 -62 -280 0 -300 -7 -292 283 -293 296 0
287 -9 287 280 0 309 -1 310 -290 310 -150 0 -191 -4 -218 -17z m436 -19 c47
-33 52 -59 52 -274 l0 -202 -29 -29 -29 -29 -207 0 -207 0 -29 29 -29 29 0
214 c1 290 -11 277 265 278 157 0 194 -3 213 -16z"/>
<path d="M6640 6560 l0 -130 120 0 121 0 -3 128 -3 127 -117 3 -118 3 0 -131z
m220 0 l0 -110 -100 0 -100 0 0 110 0 110 100 0 100 0 0 -110z"/>
<path d="M7183 6835 c-58 -25 -63 -49 -63 -289 l0 -216 29 -32 29 -33 481 -3
c418 -2 485 -1 511 13 59 30 63 47 66 258 3 220 -6 257 -68 295 -35 22 -41 22
-494 22 -368 -1 -465 -4 -491 -15z m986 -31 c46 -38 53 -78 49 -275 -3 -191
-11 -219 -64 -239 -15 -6 -218 -10 -489 -10 l-463 0 -31 26 -31 26 0 220 0
220 31 29 31 29 468 0 468 0 31 -26z"/>
<path d="M7290 6560 l0 -130 385 0 385 0 0 130 0 130 -385 0 -385 0 0 -130z
m754 83 c4 -16 4 -55 2 -88 -3 -33 -5 -70 -6 -82 l0 -23 -365 0 -365 0 0 110
0 110 364 0 364 0 6 -27z"/>
<path d="M2044 6121 c-56 -34 -64 -68 -64 -271 0 -148 3 -188 16 -216 30 -63
34 -64 430 -64 l356 0 34 34 34 34 0 201 c0 224 -5 246 -63 281 -30 19 -52 20
-372 20 -315 0 -342 -1 -371 -19z m752 -35 l34 -34 0 -200 0 -200 -26 -31 -26
-31 -357 0 c-389 0 -386 0 -410 58 -9 20 -11 88 -9 221 l3 193 33 29 32 29
346 0 346 0 34 -34z"/>
<path d="M2160 5850 l0 -120 261 2 261 3 5 118 4 117 -265 0 -266 0 0 -120z
m488 102 c21 -2 22 -6 22 -102 l0 -100 -245 0 -245 0 0 100 0 99 123 3 c131 3
308 3 345 0z"/>
<path d="M2995 6128 c-68 -40 -75 -65 -75 -285 0 -278 -5 -273 299 -273 299 0
291 -8 291 282 0 174 -2 196 -20 225 -35 58 -57 63 -277 63 -131 -1 -205 -5
-218 -12z m461 -42 l34 -34 0 -200 0 -200 -26 -31 -26 -31 -209 0 c-290 0
-284 -5 -293 212 -9 188 -1 241 39 284 l32 34 208 0 207 0 34 -34z"/>
<path d="M3090 5850 l0 -120 125 0 125 0 0 120 0 120 -125 0 -125 0 0 -120z
m230 0 l0 -100 -105 0 -105 0 0 100 0 100 105 0 105 0 0 -100z"/>
<path d="M3628 6124 c-16 -8 -37 -32 -48 -54 -18 -35 -20 -59 -20 -225 0 -282
-8 -275 303 -275 201 0 216 1 240 20 15 12 31 38 37 58 11 41 14 330 4 382 -4
18 -24 50 -44 71 l-37 39 -204 0 c-161 -1 -210 -4 -231 -16z m460 -38 l37 -34
3 -173 c4 -197 0 -232 -33 -265 -24 -24 -26 -24 -240 -24 l-217 0 -29 29 -29
29 0 201 0 200 34 35 33 36 202 0 201 0 38 -34z"/>
<path d="M3730 5850 l0 -121 121 3 120 3 2 118 2 117 -122 0 -123 0 0 -120z
m230 0 l0 -100 -105 0 -105 0 0 100 0 100 105 0 105 0 0 -100z"/>
<path d="M4275 6130 c-11 -4 -31 -20 -45 -35 -25 -26 -25 -28 -28 -235 -3
-228 -1 -238 51 -270 29 -18 52 -20 250 -20 l218 0 24 26 c37 40 45 84 45 254
0 181 -8 217 -56 259 l-35 31 -202 -1 c-111 0 -211 -4 -222 -9z m453 -44 l37
-34 3 -187 c3 -131 0 -196 -9 -216 -23 -57 -34 -59 -267 -59 l-214 0 -29 29
-29 29 0 202 0 202 34 34 34 34 201 0 201 0 38 -34z"/>
<path d="M4360 5850 l0 -120 125 0 125 0 0 120 0 120 -125 0 -125 0 0 -120z
m230 0 l0 -100 -105 0 -105 0 0 100 0 100 105 0 105 0 0 -100z"/>
<path d="M4903 6120 c-17 -10 -36 -28 -42 -39 -6 -11 -12 -107 -14 -223 -5
-299 -16 -288 295 -288 235 0 239 1 272 67 13 26 16 67 16 213 0 204 -7 234
-65 270 -30 18 -49 20 -231 20 -179 0 -202 -2 -231 -20z m461 -25 c14 -13 31
-36 36 -50 6 -15 10 -105 10 -201 0 -185 -7 -221 -49 -244 -12 -6 -104 -10
-226 -10 -122 0 -214 4 -226 10 -42 23 -49 59 -49 250 0 276 -6 270 276 270
200 0 201 0 228 -25z"/>
<path d="M5015 5850 l0 -120 123 0 122 0 0 120 0 120 -122 0 -123 0 0 -120z
m225 0 l0 -101 -102 3 -103 3 -2 85 c-1 47 0 91 2 98 3 8 33 12 105 12 l100 0
0 -100z"/>
<path d="M5553 6120 c-58 -35 -63 -57 -63 -279 l0 -201 29 -32 29 -33 222 -3
c307 -4 300 -11 300 273 0 195 -6 223 -59 268 l-33 27 -196 0 c-178 0 -200 -2
-229 -20z m438 -17 c52 -31 59 -62 59 -258 0 -186 -7 -222 -49 -245 -12 -6
-104 -10 -226 -10 l-207 0 -29 29 -29 29 0 202 0 202 34 34 34 34 192 0 c163
0 196 -3 221 -17z"/>
<path d="M5660 5850 l0 -120 115 0 115 0 0 120 0 120 -115 0 -115 0 0 -120z
m210 5 l0 -105 -95 0 -95 0 0 100 0 99 93 4 c50 1 93 4 95 5 1 1 2 -45 2 -103z"/>
<path d="M6169 6101 l-39 -39 0 -211 0 -211 29 -32 29 -33 221 -3 c240 -3 249
-2 281 51 18 29 20 51 20 227 0 214 -4 230 -66 271 -26 17 -50 19 -233 19
l-203 0 -39 -39z m472 -4 c46 -38 49 -55 49 -257 l0 -192 -29 -29 -29 -29
-212 0 -212 0 -29 29 -29 29 0 197 c0 205 6 240 47 264 11 6 100 10 218 10
192 0 201 -1 226 -22z"/>
<path d="M6300 5850 l0 -120 120 0 120 0 0 120 0 120 -120 0 -120 0 0 -120z
m220 0 l0 -100 -100 0 -100 0 0 100 0 100 100 0 100 0 0 -100z"/>
<path d="M6833 6120 c-58 -35 -63 -57 -63 -279 l0 -200 34 -35 33 -36 219 0
c303 0 293 -9 295 277 3 290 1 293 -291 293 -176 0 -198 -2 -227 -20z m452
-22 c47 -37 55 -72 55 -240 0 -171 -9 -218 -47 -248 -24 -19 -39 -20 -235 -20
l-210 0 -29 29 -29 29 0 197 c0 211 6 240 54 264 12 5 107 10 217 10 187 1
198 0 224 -21z"/>
<path d="M6940 5850 l0 -120 120 0 120 0 0 120 0 120 -120 0 -120 0 0 -120z
m220 0 l0 -100 -100 0 -100 0 0 100 0 100 100 0 100 0 0 -100z"/>
<path d="M7480 6127 c-13 -7 -35 -28 -47 -46 -22 -32 -23 -43 -23 -228 0 -150
3 -200 15 -222 15 -30 68 -61 104 -61 19 0 21 -6 21 -60 l0 -60 -172 0 c-187
0 -206 -5 -242 -53 -19 -26 -21 -45 -24 -190 -5 -215 1 -263 40 -299 l30 -28
490 0 490 0 34 34 34 34 0 550 0 549 -23 34 c-39 58 -42 59 -387 59 -232 0
-321 -4 -340 -13z m696 -41 l34 -34 0 -544 c0 -596 3 -571 -60 -603 -25 -13
-100 -15 -482 -15 -433 0 -454 1 -485 20 -18 11 -36 32 -40 47 -5 15 -8 115
-8 220 l0 193 28 27 27 28 188 5 187 5 3 73 c3 78 5 76 -61 87 -28 4 -43 14
-57 38 -18 29 -20 51 -20 224 l0 192 31 36 31 35 325 0 325 0 34 -34z"/>
<path d="M7580 5850 l0 -120 75 0 c75 0 75 0 76 -27 5 -83 -5 -341 -13 -356
-5 -10 -24 -27 -41 -37 -28 -18 -51 -20 -204 -20 l-173 0 0 -125 0 -125 380 0
380 0 0 465 0 465 -240 0 -240 0 0 -120z m456 99 c8 -13 14 -738 6 -826 l-5
-63 -363 0 -364 0 0 104 0 104 186 4 186 3 34 38 34 37 -2 198 -3 197 -72 3
-73 3 0 99 0 99 68 3 c184 9 361 7 368 -3z"/>
<path d="M2041 5432 c-64 -32 -71 -62 -71 -281 l0 -193 39 -39 39 -39 216 0
c305 0 296 -8 296 279 0 175 -2 193 -21 226 -36 61 -55 65 -271 65 -164 0
-198 -3 -227 -18z m464 -37 l35 -36 0 -189 c0 -104 -4 -200 -10 -214 -5 -14
-24 -35 -42 -46 -30 -18 -51 -20 -216 -20 -198 0 -221 5 -261 56 -20 25 -21
39 -21 211 0 279 -6 273 277 273 l202 0 36 -35z"/>
<path d="M2143 5160 l2 -121 120 3 120 3 3 118 3 117 -125 0 -124 0 1 -120z
m211 104 c13 -5 16 -24 16 -105 l0 -100 -101 3 -101 3 -3 94 c-2 52 -1 99 1
103 6 9 165 11 188 2z"/>
<path d="M2692 5433 c-57 -28 -62 -49 -62 -279 l0 -206 34 -34 34 -34 214 0
c296 0 288 -8 288 275 0 290 -5 295 -292 295 -148 0 -189 -4 -216 -17z m428
-18 c56 -29 62 -55 58 -271 l-3 -196 -33 -30 -34 -29 -200 3 -200 3 -29 33
-29 32 0 203 c1 276 -9 266 258 267 144 0 189 -3 212 -15z"/>
<path d="M2790 5160 l0 -121 120 3 121 3 2 118 2 117 -122 0 -123 0 0 -120z
m228 3 l3 -103 -106 0 -105 0 0 105 0 106 103 -3 102 -3 3 -102z"/>
<path d="M3323 5430 c-58 -35 -63 -57 -63 -279 l0 -200 31 -36 31 -35 219 0
c308 0 299 -8 299 275 0 206 -7 237 -58 274 -28 20 -42 21 -229 21 -179 0
-201 -2 -230 -20z m437 -15 c54 -28 60 -55 60 -254 0 -99 -4 -191 -10 -205 -5
-14 -24 -35 -42 -46 -30 -18 -51 -20 -216 -20 -194 0 -240 8 -261 48 -7 13
-11 95 -11 214 0 175 2 196 20 226 11 18 30 37 43 42 12 5 104 9 205 9 145 1
189 -2 212 -14z"/>
<path d="M3430 5163 l0 -123 125 0 125 0 0 119 0 120 -125 3 -125 3 0 -122z
m228 0 l3 -103 -106 0 -105 0 0 105 0 106 103 -3 102 -3 3 -102z"/>
<path d="M3963 5430 c-58 -35 -63 -58 -63 -270 0 -288 -8 -280 292 -280 296 0
288 -7 288 270 0 195 -4 215 -58 273 l-26 27 -200 0 c-182 0 -204 -2 -233 -20z
m459 -40 l38 -41 0 -195 0 -196 -35 -35 -34 -34 -205 3 -206 3 -27 28 -28 27
0 211 0 211 33 29 32 29 197 0 196 0 39 -40z"/>
<path d="M4070 5160 l0 -120 120 0 120 0 0 120 0 120 -120 0 -120 0 0 -120z
m198 104 c21 -6 22 -11 22 -105 l0 -99 -100 0 -100 0 0 105 0 105 78 0 c42 0
87 -3 100 -6z"/>
<path d="M4599 5427 c-56 -37 -59 -51 -59 -278 l0 -207 29 -31 29 -31 225 0
224 0 27 25 c14 13 31 36 36 50 6 15 10 107 10 206 0 162 -2 184 -21 220 -32
63 -57 69 -277 69 -180 0 -191 -1 -223 -23z m435 -7 c14 -5 35 -24 46 -42 18
-30 20 -51 20 -211 0 -282 3 -280 -292 -275 l-200 3 -24 28 c-24 28 -24 31
-24 234 l0 205 34 34 34 34 190 0 c105 0 202 -4 216 -10z"/>
<path d="M4704 5163 l2 -118 121 -3 122 -3 3 121 3 120 -126 0 -127 0 2 -117z
m223 99 c9 -6 12 -36 10 -102 l-2 -95 -102 -3 -102 -3 -3 102 c-2 55 -1 103 1
105 8 7 186 4 198 -4z"/>
<path d="M5260 5442 c-29 -13 -57 -37 -68 -59 -8 -14 -12 -91 -12 -228 l0
-207 34 -34 34 -34 216 0 c302 0 296 -6 296 274 0 99 -5 187 -11 203 -5 15
-24 43 -42 61 l-31 32 -200 -1 c-111 0 -208 -3 -216 -7z m419 -27 c52 -26 61
-64 61 -258 0 -97 -4 -187 -10 -201 -5 -14 -24 -35 -42 -46 -30 -18 -51 -20
-216 -20 -197 0 -233 7 -261 52 -10 16 -15 74 -19 198 -8 289 -7 290 271 290
145 0 194 -3 216 -15z"/>
<path d="M5350 5160 l0 -120 120 0 120 0 0 120 0 120 -120 0 -120 0 0 -120z
m218 3 l3 -103 -101 0 -100 0 0 105 0 106 98 -3 97 -3 3 -102z"/>
<path d="M5879 5427 c-55 -37 -59 -52 -59 -265 0 -291 -9 -282 294 -282 l216
0 32 29 33 29 3 206 c3 228 -1 250 -61 286 -29 18 -51 20 -228 20 -188 0 -198
-1 -230 -23z m467 -31 l34 -34 0 -202 0 -202 -35 -35 -34 -34 -206 3 -207 3
-29 33 -30 34 3 205 3 205 33 29 32 29 201 0 201 0 34 -34z"/>
<path d="M5990 5163 l0 -123 125 0 125 0 0 119 0 120 -125 3 -125 3 0 -122z
m228 0 l3 -103 -106 0 -105 0 0 105 0 106 103 -3 102 -3 3 -102z"/>
<path d="M6545 5440 c-11 -4 -31 -20 -45 -35 -25 -26 -25 -30 -28 -218 -4
-210 3 -254 45 -286 24 -20 39 -21 235 -21 296 0 288 -8 288 282 0 174 -2 196
-20 225 -35 58 -58 63 -267 62 -103 0 -197 -4 -208 -9z m441 -44 l34 -34 0
-190 c0 -105 -4 -202 -10 -216 -5 -14 -24 -35 -42 -46 -30 -18 -51 -20 -211
-20 -272 0 -267 -5 -267 270 1 280 -10 269 269 270 l193 0 34 -34z"/>
<path d="M6640 5160 l0 -121 118 3 117 3 3 118 3 117 -121 0 -120 0 0 -120z
m218 3 l3 -103 -101 0 -100 0 0 105 0 106 98 -3 97 -3 3 -102z"/>
<path d="M2053 4759 c-17 -5 -43 -23 -57 -40 l-26 -31 0 -219 c0 -244 4 -264
63 -299 30 -19 52 -20 311 -20 l278 0 34 34 34 34 0 221 c0 239 -2 252 -55
301 l-27 25 -261 2 c-144 1 -276 -2 -294 -8z m557 -24 c55 -29 60 -52 60 -290
l0 -217 -29 -29 -29 -29 -274 0 c-299 0 -302 1 -333 60 -12 23 -15 72 -15 238
0 199 1 211 21 236 12 15 31 32 43 36 11 5 135 9 274 9 207 1 258 -2 282 -14z"/>
<path d="M2160 4455 l0 -145 180 0 180 0 0 145 0 145 -180 0 -180 0 0 -145z
m338 3 l-3 -123 -157 -3 -158 -3 0 110 c0 60 -3 116 -6 125 -5 14 13 16 160
16 l167 0 -3 -122z"/>
<path d="M2870 4761 c-46 -9 -75 -26 -94 -53 -13 -19 -16 -61 -16 -250 l0
-228 34 -38 34 -37 251 -3 250 -3 33 30 33 29 0 240 0 240 -25 27 c-14 15 -34
32 -45 38 -23 12 -401 19 -455 8z m476 -53 l34 -38 0 -221 0 -221 -29 -29 -29
-29 -237 0 -237 0 -34 34 -34 34 0 224 c0 223 0 225 24 247 38 36 70 40 294
38 l214 -2 34 -37z"/>
<path d="M2932 4458 l3 -143 148 -3 147 -3 0 146 0 145 -150 0 -151 0 3 -142z
m278 -3 l0 -126 -127 3 -128 3 -3 123 -3 122 131 0 130 0 0 -125z"/>
<path d="M3565 4755 c-22 -8 -50 -26 -62 -40 -22 -25 -23 -35 -25 -213 -2
-300 -1 -304 64 -338 42 -22 2316 -21 2358 1 58 30 60 39 60 278 0 241 -3 257
-62 299 l-33 23 -1130 2 c-943 1 -1137 -1 -1170 -12z m2299 -19 c18 -7 42 -26
54 -41 21 -27 22 -37 22 -247 l0 -220 -29 -29 -29 -29 -1162 0 -1162 0 -35 35
-34 34 3 220 c3 217 3 220 27 245 14 15 39 30 55 35 17 5 528 10 1144 10 924
1 1118 -1 1146 -13z"/>
<path d="M3650 4458 l0 -143 1070 0 1070 0 0 143 0 142 -1070 0 -1070 0 0
-142z m2118 0 l-3 -123 -1045 0 -1045 0 -5 113 c-3 62 -3 117 -2 122 2 7 378
10 1053 10 l1050 0 -3 -122z"/>
<path d="M6203 4760 c-100 -5 -104 -6 -135 -38 l-33 -32 -3 -230 -3 -229 35
-38 34 -38 231 -3 c339 -4 327 -16 322 302 -4 305 -2 303 -212 308 -74 2 -180
1 -236 -2z m378 -33 c50 -34 58 -68 58 -267 1 -193 -7 -239 -46 -270 -24 -19
-39 -20 -245 -20 -238 0 -263 5 -287 57 -7 15 -11 103 -11 231 0 209 1 213 36
260 1 2 20 10 41 17 27 10 94 14 229 15 183 0 193 -1 225 -23z"/>
<path d="M6202 4458 l3 -143 143 -3 142 -3 0 146 0 145 -145 0 -146 0 3 -142z
m268 -3 l0 -126 -122 3 -123 3 -3 123 -3 122 126 0 125 0 0 -125z"/>
<path d="M6870 4761 c-50 -7 -93 -34 -109 -69 -7 -14 -11 -108 -11 -244 l0
-221 40 -39 41 -38 228 0 c219 0 229 1 256 22 49 38 55 69 55 283 0 218 -6
247 -60 285 -30 21 -42 23 -213 25 -100 1 -202 0 -227 -4z m442 -49 l33 -32 3
-212 c2 -148 0 -220 -9 -240 -22 -53 -47 -58 -279 -58 -306 0 -289 -16 -290
287 0 305 -13 293 312 290 l198 -2 32 -33z"/>
<path d="M6920 4598 c-1 -2 -2 -66 -3 -143 l-2 -140 138 0 138 0 1 140 0 140
-136 3 c-75 1 -136 1 -136 0z m258 -140 l-3 -123 -122 -3 -123 -3 0 126 0 125
125 0 126 0 -3 -122z"/>
<path d="M7534 4759 c-46 -13 -82 -54 -89 -103 -4 -23 -5 -128 -3 -233 3 -176
5 -194 24 -220 38 -52 46 -53 369 -53 420 0 405 -12 405 303 0 221 -6 249 -64
290 -30 21 -39 22 -321 23 -159 1 -304 -2 -321 -7z m627 -32 c55 -37 59 -52
59 -265 0 -214 -6 -244 -59 -275 -26 -15 -65 -17 -333 -17 l-304 0 -30 31 -29
30 -3 214 c-3 182 -1 219 13 245 29 56 50 59 366 60 282 0 287 0 320 -23z"/>
<path d="M7612 4458 l3 -143 223 -3 222 -2 0 145 0 145 -225 0 -226 0 3 -142z
m432 95 c4 -16 4 -71 2 -123 l-4 -95 -206 -3 -206 -2 0 125 0 125 204 0 204 0
6 -27z"/>
<path d="M8297 3269 c-116 -27 -193 -111 -204 -223 -15 -144 54 -215 272 -281
99 -31 125 -47 125 -79 0 -41 -36 -66 -95 -66 -48 0 -89 25 -109 66 -8 19 -23
34 -32 34 -27 0 -138 -31 -152 -43 -33 -26 24 -139 93 -187 121 -83 320 -75
419 18 74 69 98 204 54 292 -34 67 -91 104 -224 145 -104 33 -154 60 -154 84
0 22 38 52 72 58 50 8 95 -12 115 -51 22 -43 28 -45 92 -29 120 30 128 40 92
118 -52 116 -213 180 -364 144z m223 -36 c25 -11 58 -33 74 -49 27 -27 65 -96
66 -120 0 -12 -95 -44 -132 -44 -19 0 -27 6 -32 25 -19 75 -178 86 -216 16
-29 -56 7 -90 141 -131 119 -37 165 -58 196 -92 30 -32 53 -90 53 -133 0 -150
-113 -255 -272 -255 -55 0 -158 32 -200 61 -30 22 -73 88 -83 129 -6 24 -2 26
70 46 l75 21 6 -22 c20 -80 158 -114 222 -55 12 12 22 33 22 48 0 51 -24 70
-133 103 -168 52 -220 85 -252 161 -37 90 1 212 82 265 84 55 222 67 313 26z"/>
<path d="M1562 3258 c-9 -12 -12 -110 -10 -414 l3 -399 94 -3 c69 -2 97 1 103
10 4 7 8 65 8 129 l0 116 99 5 c110 5 167 26 221 81 56 56 73 103 74 192 0
136 -60 230 -173 271 -66 24 -401 33 -419 12z m386 -23 c69 -21 131 -70 161
-130 34 -66 36 -179 4 -240 -52 -99 -119 -135 -270 -143 l-103 -5 0 -128 0
-129 -85 0 -85 0 0 395 0 395 163 0 c117 0 178 -4 215 -15z"/>
<path d="M1740 2979 l0 -112 87 5 c82 4 87 6 115 36 20 24 28 43 28 70 0 75
-54 112 -165 112 l-65 0 0 -111z m186 58 c24 -28 32 -80 16 -103 -21 -30 -59
-44 -119 -44 l-63 0 0 91 0 91 71 -4 c63 -3 74 -7 95 -31z"/>
<path d="M2221 3256 c-8 -9 -10 -126 -9 -412 l3 -399 264 -3 c205 -2 266 1
273 10 12 20 10 152 -4 166 -8 8 -62 12 -175 12 l-163 0 0 75 0 74 128 3 127
3 3 83 3 82 -131 0 -130 0 0 65 0 65 160 0 c121 0 160 3 160 13 0 6 2 43 4 82
2 38 2 75 -1 82 -8 20 -496 19 -512 -1z m493 -43 c10 -62 7 -113 -6 -115 -7
-1 -80 -2 -163 -2 l-150 -1 -3 -82 -3 -83 135 0 134 0 1 -52 c1 -91 7 -87
-137 -85 l-127 2 -3 -92 -3 -93 176 0 175 0 0 -75 0 -75 -255 0 -255 0 0 395
0 395 239 0 238 0 7 -37z"/>
<path d="M2842 3257 c-9 -11 -12 -113 -10 -413 l3 -399 95 0 95 0 5 140 5 140
25 -3 c14 -2 26 -7 28 -10 1 -4 42 -65 90 -137 l87 -130 110 0 c90 0 110 3
112 15 2 8 -35 69 -82 135 -107 153 -115 167 -95 173 8 3 34 24 57 48 124 128
82 353 -79 425 -48 21 -69 24 -244 27 -157 3 -192 1 -202 -11z m409 -23 c70
-21 139 -89 159 -157 16 -58 7 -143 -20 -196 -21 -42 -77 -95 -110 -106 -19
-6 -20 -9 -7 -23 8 -10 47 -66 88 -127 40 -60 76 -112 80 -115 3 -3 11 -15 18
-27 l12 -23 -96 0 -95 0 -92 140 -93 139 -42 1 -43 0 0 -140 0 -140 -80 0 -80
0 0 395 0 395 173 0 c130 0 187 -4 228 -16z"/>
<path d="M3010 2985 l0 -105 81 0 c95 0 133 17 150 67 15 46 3 88 -33 118 -26
22 -38 25 -114 25 l-84 0 0 -105z m180 70 c52 -27 49 -119 -6 -144 -14 -6 -54
-11 -89 -11 l-65 0 0 85 0 85 65 0 c39 0 78 -6 95 -15z"/>
<path d="M3562 3262 c-9 -7 -12 -96 -10 -413 l3 -404 95 0 95 0 3 404 c2 317
-1 406 -10 413 -7 4 -47 8 -88 8 -41 0 -81 -4 -88 -8z m168 -407 l0 -395 -80
0 -80 0 0 395 0 395 80 0 80 0 0 -395z"/>
<path d="M3899 3260 c-14 -8 -16 -52 -15 -404 1 -271 4 -398 12 -406 7 -7 45
-10 100 -8 l89 3 3 133 3 132 84 0 c140 0 227 47 281 151 22 43 30 146 15 204
-25 98 -103 168 -214 192 -71 14 -334 17 -358 3z m403 -32 c59 -26 124 -93
142 -145 44 -129 -6 -267 -116 -324 -44 -23 -168 -43 -220 -36 l-38 5 0 -134
0 -134 -85 0 -85 0 0 396 0 396 183 -4 c138 -3 191 -8 219 -20z"/>
<path d="M4070 2980 l0 -110 65 0 c100 0 155 38 155 107 0 81 -42 113 -150
113 l-70 0 0 -110z m160 77 c31 -16 45 -54 36 -101 -6 -30 -14 -40 -41 -52
-19 -8 -57 -14 -85 -14 l-50 0 0 90 0 90 58 0 c31 0 68 -6 82 -13z"/>
<path d="M4566 3239 c-9 -47 -7 -772 2 -787 6 -9 34 -12 102 -10 l94 3 -3 168
-3 167 146 0 146 0 2 -167 3 -168 98 -3 c74 -2 97 0 97 10 1 7 0 191 0 408 0
298 -4 396 -13 402 -7 5 -50 7 -97 6 l-85 -3 -3 -158 -3 -158 -142 3 -142 3
-5 155 -5 155 -91 3 -91 3 -7 -32z m180 -9 c1 -8 2 -79 2 -157 l2 -143 160 0
160 0 0 160 0 161 83 -3 82 -3 3 -392 2 -393 -85 0 -85 0 0 170 0 170 -160 0
-160 0 0 -170 0 -170 -85 0 -85 0 0 395 0 396 83 -3 c64 -2 82 -6 83 -18z"/>
<path d="M5382 3262 c-9 -7 -12 -96 -10 -413 l3 -404 255 0 255 0 0 90 0 90
-157 3 -158 3 0 74 0 74 128 3 127 3 0 80 0 80 -127 3 -128 3 0 64 0 65 160 0
160 0 0 83 c0 51 -5 88 -12 95 -14 14 -474 17 -496 4z m488 -89 l0 -78 -160 0
-160 0 0 -82 0 -83 130 0 130 0 0 -65 0 -65 -130 0 -130 0 0 -95 0 -95 160 0
160 0 0 -75 0 -75 -240 0 -240 0 0 395 0 395 240 0 240 0 0 -77z"/>
<path d="M6011 3251 c-8 -14 -10 -141 -9 -413 l3 -393 100 0 100 0 3 136 c2
125 4 137 22 142 24 6 28 1 129 -155 l83 -128 99 0 c59 0 99 4 99 10 0 6 -38
10 -92 10 l-93 1 -93 139 -92 140 -40 0 -40 0 0 -140 0 -140 -85 0 -85 0 2
393 3 392 175 0 c214 0 256 -10 320 -74 107 -108 91 -294 -32 -377 l-47 -32
91 -138 c101 -156 108 -164 108 -143 0 9 -38 74 -85 145 l-85 129 23 15 c109
74 149 224 91 345 -28 61 -68 98 -134 129 -39 18 -70 21 -237 24 -185 4 -192
3 -202 -17z"/>
<path d="M6960 3250 c-11 -21 -253 -657 -278 -731 -24 -74 -19 -79 98 -79
l101 0 19 45 c10 24 24 63 30 85 l11 40 134 0 134 0 22 -72 c12 -40 26 -79 32
-85 6 -9 42 -13 114 -13 122 0 127 5 94 84 -12 29 -39 101 -60 162 -101 287
-194 541 -207 562 -14 21 -21 22 -124 22 -98 0 -110 -2 -120 -20z m230 -20 c6
-11 60 -158 121 -327 61 -169 121 -334 135 -367 13 -33 24 -63 24 -68 0 -5
-44 -7 -97 -6 l-96 3 -29 85 -28 85 -145 0 -145 0 -25 -75 c-14 -41 -29 -81
-33 -88 -6 -9 -34 -12 -99 -10 l-91 3 89 235 c49 129 112 296 140 370 28 74
55 145 60 158 8 21 14 22 108 22 90 0 101 -2 111 -20z"/>
<path d="M7028 2920 l-47 -140 101 0 c76 0 99 3 96 13 -3 6 -24 69 -48 140
-24 70 -46 127 -49 127 -3 0 -27 -63 -53 -140z m122 -112 c0 -5 -31 -8 -69 -8
l-70 0 36 106 36 107 33 -99 c19 -55 34 -102 34 -106z"/>
<path d="M7561 3257 c-8 -11 -11 -121 -9 -413 l3 -399 255 0 255 0 3 83 c2 53
-1 89 -9 98 -9 11 -45 14 -160 14 l-149 0 -2 313 -3 312 -86 3 c-64 2 -89 -1
-98 -11z m169 -322 l0 -315 160 0 160 0 0 -80 0 -80 -240 0 -240 0 0 395 0
395 80 0 80 0 0 -315z"/>
<path d="M6190 2987 l0 -109 91 4 c85 3 92 5 115 31 17 20 24 40 24 68 0 80
-29 101 -148 109 l-82 5 0 -108z m191 54 c27 -33 25 -86 -6 -116 -21 -22 -33
-25 -95 -25 l-70 0 0 86 0 86 76 -4 c65 -3 79 -7 95 -27z"/>
<path d="M3625 2153 c-67 -20 -124 -63 -160 -120 -27 -43 -30 -57 -30 -125 0
-69 3 -80 30 -120 37 -52 96 -86 225 -129 109 -36 130 -51 130 -90 0 -21 -7
-32 -30 -44 -60 -31 -140 -7 -167 50 -13 28 -23 35 -44 35 -47 0 -128 -21
-149 -38 -18 -15 -19 -21 -8 -55 17 -55 80 -122 145 -153 45 -22 74 -29 142
-32 102 -5 152 7 217 51 63 42 95 99 102 183 4 55 1 71 -22 118 -34 69 -84
102 -224 149 -57 20 -114 43 -127 51 -52 34 -16 86 64 94 43 4 53 1 75 -21 14
-15 26 -35 26 -45 0 -10 2 -21 5 -24 11 -10 169 31 181 47 26 35 -19 126 -89
179 -69 52 -195 69 -292 39z m204 -19 c52 -15 121 -68 143 -108 6 -11 14 -35
19 -53 6 -30 5 -34 -20 -39 -14 -3 -47 -12 -74 -20 l-47 -13 -19 38 c-30 57
-94 76 -170 50 -56 -20 -70 -83 -25 -118 15 -12 70 -34 123 -51 178 -55 239
-111 249 -226 6 -67 -31 -148 -84 -189 -96 -74 -275 -74 -385 0 -47 31 -99 99
-99 130 0 26 10 31 96 49 l61 13 12 -34 c19 -53 100 -82 172 -63 44 12 59 33
59 84 0 32 -4 36 -52 59 -29 14 -80 32 -113 42 -156 44 -225 115 -225 228 0
56 42 140 87 174 77 59 191 77 292 47z"/>
<path d="M5023 2155 c-128 -28 -228 -110 -286 -233 -23 -50 -31 -82 -35 -151
-8 -141 34 -250 126 -332 213 -188 529 -126 654 128 32 65 33 72 33 188 0 113
-2 123 -29 175 -56 108 -126 173 -225 211 -67 25 -165 31 -238 14z m169 -16
c118 -25 221 -106 275 -216 26 -53 28 -67 28 -168 0 -103 -2 -114 -32 -177
-38 -81 -97 -141 -184 -188 -61 -34 -68 -35 -170 -35 -100 0 -108 2 -172 34
-149 76 -226 213 -215 386 11 172 135 320 303 361 65 16 102 17 167 3z"/>
<path d="M5031 1983 c-41 -8 -115 -92 -134 -152 -21 -65 -21 -93 -2 -157 32
-108 105 -164 213 -164 138 0 224 93 226 246 0 63 -3 77 -29 120 -17 27 -50
62 -73 78 -36 26 -53 31 -110 32 -37 1 -78 0 -91 -3z m157 -28 c81 -34 123
-103 123 -200 0 -71 -15 -114 -57 -164 -37 -44 -79 -61 -152 -61 -67 0 -105
20 -153 80 -86 107 -34 313 87 350 46 13 112 11 152 -5z"/>
<path d="M4108 2149 c-14 -8 -18 -24 -18 -79 0 -102 -2 -100 101 -100 l89 0 0
-309 c0 -272 2 -310 16 -315 29 -11 160 -6 172 6 9 9 12 93 12 315 l0 302 112
3 112 3 1 75 c3 119 28 110 -298 110 -173 0 -289 -5 -299 -11z m582 -84 l0
-75 -115 0 -115 0 0 -315 0 -315 -80 0 -80 0 0 315 0 315 -95 0 -95 0 0 75 0
75 290 0 290 0 0 -75z"/>
<path d="M5607 2153 c-4 -3 -7 -182 -7 -398 0 -291 3 -394 12 -403 13 -13 153
-17 182 -6 13 5 16 27 16 135 0 173 9 173 120 4 45 -69 91 -130 101 -136 11
-5 61 -8 112 -7 86 3 92 4 95 25 3 21 -111 205 -161 260 l-20 22 36 21 c104
61 139 236 70 349 -31 49 -102 103 -161 122 -40 13 -384 24 -395 12z m418 -42
c109 -48 163 -138 152 -253 -7 -77 -47 -144 -104 -176 l-42 -23 56 -82 c31
-45 76 -109 100 -142 24 -32 43 -63 43 -67 0 -5 -44 -7 -97 -6 l-98 3 -89 133
c-85 125 -91 132 -123 132 l-33 0 0 -135 0 -135 -85 0 -85 0 0 391 0 391 178
-4 c155 -4 183 -7 227 -27z"/>
<path d="M5790 1874 l0 -116 76 4 c71 3 78 6 105 36 22 25 29 42 29 75 0 78
-52 117 -155 117 l-55 0 0 -116z m165 66 c19 -18 25 -34 25 -65 0 -60 -32 -87
-110 -93 l-60 -4 0 97 0 97 60 -4 c45 -3 66 -10 85 -28z"/>
<path d="M6288 2149 c-17 -9 -18 -39 -18 -403 0 -350 2 -395 16 -400 9 -3 127
-6 263 -6 184 0 252 3 265 13 14 10 16 26 14 92 l-3 80 -172 3 -173 2 0 70 0
69 128 3 127 3 0 85 0 85 -127 3 -128 3 0 59 0 60 154 0 c85 0 161 3 170 6 13
5 16 22 16 83 0 47 -5 82 -12 89 -15 15 -494 17 -520 1z m512 -84 l0 -75 -170
0 -170 0 0 -80 0 -80 130 0 130 0 0 -70 0 -70 -130 0 -130 0 0 -90 0 -90 175
0 176 0 -3 -72 -3 -73 -257 -3 -258 -2 0 390 0 390 255 0 255 0 0 -75z"/>
</g>
</svg>
